<svg width="309" height="77" viewBox="0 0 309 77" fill="none" xmlns="http://www.w3.org/2000/svg">
<mask id="path-1-outside-1_124_4540" maskUnits="userSpaceOnUse" x="0" y="0" width="67" height="77" fill="black">
<rect fill="white" width="67" height="77"/>
<path d="M9.4364 4.0965C10.373 4.0965 11.2773 4.37323 12.0363 4.90155L12.0928 4.93509L12.1494 4.96864L60.4981 33.9422L60.5465 33.9758L60.6031 34.0009C62.549 35.0072 62.8315 37.1289 62.8315 38.3029C62.8315 40.76 61.1198 42.345 60.0621 43.0913L12.1413 72.0397L12.0848 72.0733L12.0363 72.1068C11.237 72.6603 10.1227 72.9119 9.4364 72.9119C8.74202 72.9119 7.63584 72.6603 6.83649 72.1068L6.73152 72.0314L6.61848 71.9727C5.10859 71.1928 4.01857 69.2137 4.01857 67.2765V9.72349C4.01857 7.22447 5.78683 5.63113 6.83649 4.90155C7.60354 4.37323 8.49979 4.0965 9.4364 4.0965ZM9.4364 2C8.13645 2 6.83649 2.38576 5.72224 3.15727C3.48567 4.70029 2 7.0232 2 9.72349V67.2765C2 69.9768 3.48567 72.6855 5.72224 73.8427C6.83649 74.6142 8.32215 75 9.44448 75C10.5668 75 12.0444 74.6142 13.1667 73.8427L61.144 44.8692C63.3725 43.3261 64.8663 41.0032 64.8663 38.3029C64.8663 35.6026 63.752 33.2797 61.5154 32.1225L13.1586 3.15727C12.0444 2.38576 10.7444 2 9.4364 2Z"/>
</mask>
<path d="M9.4364 4.0965C10.373 4.0965 11.2773 4.37323 12.0363 4.90155L12.0928 4.93509L12.1494 4.96864L60.4981 33.9422L60.5465 33.9758L60.6031 34.0009C62.549 35.0072 62.8315 37.1289 62.8315 38.3029C62.8315 40.76 61.1198 42.345 60.0621 43.0913L12.1413 72.0397L12.0848 72.0733L12.0363 72.1068C11.237 72.6603 10.1227 72.9119 9.4364 72.9119C8.74202 72.9119 7.63584 72.6603 6.83649 72.1068L6.73152 72.0314L6.61848 71.9727C5.10859 71.1928 4.01857 69.2137 4.01857 67.2765V9.72349C4.01857 7.22447 5.78683 5.63113 6.83649 4.90155C7.60354 4.37323 8.49979 4.0965 9.4364 4.0965ZM9.4364 2C8.13645 2 6.83649 2.38576 5.72224 3.15727C3.48567 4.70029 2 7.0232 2 9.72349V67.2765C2 69.9768 3.48567 72.6855 5.72224 73.8427C6.83649 74.6142 8.32215 75 9.44448 75C10.5668 75 12.0444 74.6142 13.1667 73.8427L61.144 44.8692C63.3725 43.3261 64.8663 41.0032 64.8663 38.3029C64.8663 35.6026 63.752 33.2797 61.5154 32.1225L13.1586 3.15727C12.0444 2.38576 10.7444 2 9.4364 2Z" fill="url(#paint0_linear_124_4540)"/>
<path d="M12.0363 4.90155L10.8937 6.54303L10.9532 6.58445L11.0156 6.62145L12.0363 4.90155ZM12.1494 4.96864L13.1774 3.25308L13.1701 3.24874L12.1494 4.96864ZM60.4981 33.9422L61.6365 32.2978L61.5825 32.2604L61.5261 32.2267L60.4981 33.9422ZM60.5465 33.9758L59.4081 35.6201L59.5621 35.7268L59.7332 35.8029L60.5465 33.9758ZM60.6031 34.0009L61.5218 32.2244L61.4698 32.1975L61.4164 32.1738L60.6031 34.0009ZM60.0621 43.0913L61.0962 44.8032L61.1571 44.7665L61.2152 44.7255L60.0621 43.0913ZM12.1413 72.0397L13.162 73.7597L13.1687 73.7557L13.1754 73.7516L12.1413 72.0397ZM12.0848 72.0733L11.0641 70.3534L11.0038 70.3891L10.9463 70.429L12.0848 72.0733ZM12.0363 72.1068L10.8978 70.4625L10.8978 70.4625L12.0363 72.1068ZM6.83649 72.1068L5.66896 73.7307L5.68337 73.741L5.69796 73.7511L6.83649 72.1068ZM6.73152 72.0314L7.89905 70.4075L7.78161 70.3231L7.65324 70.2564L6.73152 72.0314ZM6.61848 71.9727L7.5402 70.1977L7.53633 70.1957L6.61848 71.9727ZM6.83649 4.90155L5.70201 3.25442L5.69501 3.25929L6.83649 4.90155ZM5.72224 3.15727L6.85798 4.8035L6.86077 4.80158L5.72224 3.15727ZM5.72224 73.8427L6.86077 72.1984L6.75529 72.1254L6.64135 72.0664L5.72224 73.8427ZM13.1667 73.8427L12.1328 72.1307L12.0823 72.1612L12.0337 72.1946L13.1667 73.8427ZM61.144 44.8692L62.1779 46.5812L62.2313 46.549L62.2826 46.5135L61.144 44.8692ZM61.5154 32.1225L60.4877 33.8382L60.5411 33.8702L60.5963 33.8988L61.5154 32.1225ZM13.1586 3.15727L12.0201 4.80158L12.0743 4.83912L12.1309 4.87302L13.1586 3.15727ZM9.4364 6.0965C9.97747 6.0965 10.4806 6.25544 10.8937 6.54303L13.1789 3.26007C12.0741 2.49103 10.7686 2.0965 9.4364 2.0965V6.0965ZM11.0156 6.62145L11.0721 6.655L13.1136 3.21519L13.0571 3.18165L11.0156 6.62145ZM11.0721 6.655L11.1286 6.68854L13.1701 3.24874L13.1136 3.21519L11.0721 6.655ZM11.1213 6.68418L59.47 35.6578L61.5261 32.2267L13.1774 3.25309L11.1213 6.68418ZM59.3597 35.5866L59.4081 35.6201L61.685 32.3314L61.6365 32.2978L59.3597 35.5866ZM59.7332 35.8029L59.7897 35.8281L61.4164 32.1738L61.3599 32.1486L59.7332 35.8029ZM59.6843 35.7774C60.5546 36.2275 60.8315 37.2583 60.8315 38.3029H64.8315C64.8315 36.9995 64.5433 33.787 61.5218 32.2244L59.6843 35.7774ZM60.8315 38.3029C60.8315 39.7593 59.808 40.8228 58.909 41.4572L61.2152 44.7255C62.4316 43.8671 64.8315 41.7608 64.8315 38.3029H60.8315ZM59.0279 41.3794L11.1072 70.3279L13.1754 73.7516L61.0962 44.8032L59.0279 41.3794ZM11.1206 70.3198L11.0641 70.3534L13.1055 73.7932L13.162 73.7597L11.1206 70.3198ZM10.9463 70.429L10.8978 70.4625L13.1748 73.7512L13.2233 73.7176L10.9463 70.429ZM10.8978 70.4625C10.7245 70.5825 10.4614 70.7037 10.1467 70.7932C9.83003 70.8833 9.56532 70.9119 9.4364 70.9119V74.9119C10.455 74.9119 11.9845 74.5753 13.1748 73.7511L10.8978 70.4625ZM9.4364 70.9119C9.30247 70.9119 9.03796 70.883 8.72417 70.7936C8.41224 70.7046 8.15002 70.5837 7.97501 70.4625L5.69796 73.7511C6.88707 74.5745 8.40799 74.9119 9.4364 74.9119V70.9119ZM8.00401 70.483L7.89905 70.4075L5.564 73.6552L5.66896 73.7307L8.00401 70.483ZM7.65324 70.2564L7.5402 70.1977L5.69677 73.7476L5.80981 73.8063L7.65324 70.2564ZM7.53633 70.1957C6.80364 69.8173 6.01857 68.6013 6.01857 67.2765H2.01857C2.01857 69.826 3.41355 72.5683 5.70064 73.7496L7.53633 70.1957ZM6.01857 67.2765V9.72349H2.01857V67.2765H6.01857ZM6.01857 9.72349C6.01857 8.24073 7.07835 7.1691 7.97797 6.54381L5.69501 3.25929C4.49531 4.09316 2.01857 6.2082 2.01857 9.72349H6.01857ZM7.97095 6.54867C8.40091 6.25253 8.90078 6.0965 9.4364 6.0965V2.0965C8.09879 2.0965 6.80618 2.49394 5.70202 3.25444L7.97095 6.54867ZM9.4364 0C7.74159 0 6.04219 0.503099 4.58371 1.51296L6.86077 4.80158C7.63078 4.26841 8.5313 4 9.4364 4V0ZM4.58649 1.51103C1.92919 3.34432 0 6.23189 0 9.72349H4C4 7.81452 5.04215 6.05625 6.85798 4.8035L4.58649 1.51103ZM0 9.72349V67.2765H4V9.72349H0ZM0 67.2765C0 70.6119 1.80832 74.0694 4.80313 75.619L6.64135 72.0664C5.16301 71.3015 4 69.3416 4 67.2765H0ZM4.58371 75.487C6.06556 76.5131 7.95751 77 9.44448 77V73C8.6868 73 7.60742 72.7154 6.86077 72.1984L4.58371 75.487ZM9.44448 77C10.9353 77 12.8155 76.5112 14.2997 75.4909L12.0337 72.1946C11.2733 72.7173 10.1983 73 9.44448 73V77ZM14.2006 75.5548L62.1779 46.5812L60.1101 43.1571L12.1328 72.1307L14.2006 75.5548ZM62.2826 46.5135C64.9263 44.683 66.8663 41.7974 66.8663 38.3029H62.8663C62.8663 40.209 61.8188 41.9693 60.0055 43.2248L62.2826 46.5135ZM66.8663 38.3029C66.8663 35.0622 65.5009 31.9328 62.4346 30.3462L60.5963 33.8988C62.0031 34.6267 62.8663 36.1431 62.8663 38.3029H66.8663ZM62.5432 30.4067L14.1864 1.44152L12.1309 4.87302L60.4877 33.8382L62.5432 30.4067ZM14.2972 1.51296C12.8377 0.50239 11.138 0 9.4364 0V4C10.3509 4 11.2511 4.26912 12.0201 4.80158L14.2972 1.51296Z" fill="#FED530" mask="url(#path-1-outside-1_124_4540)"/>
<path d="M78.47 40C78.25 40 78.07 39.93 77.93 39.79C77.79 39.65 77.72 39.47 77.72 39.25V23.71H72.38C72.16 23.71 71.98 23.64 71.84 23.5C71.7 23.34 71.63 23.16 71.63 22.96V19.75C71.63 19.53 71.7 19.35 71.84 19.21C71.98 19.07 72.16 19 72.38 19H88.52C88.74 19 88.92 19.07 89.06 19.21C89.2 19.35 89.27 19.53 89.27 19.75V22.96C89.27 23.16 89.2 23.34 89.06 23.5C88.92 23.64 88.74 23.71 88.52 23.71H83.18V39.25C83.18 39.47 83.11 39.65 82.97 39.79C82.83 39.93 82.65 40 82.43 40H78.47ZM101.236 40.3C99.4365 40.3 97.8565 40.01 96.4965 39.43C95.1565 38.83 94.1165 37.92 93.3765 36.7C92.6365 35.46 92.2665 33.89 92.2665 31.99V19.75C92.2665 19.53 92.3365 19.35 92.4765 19.21C92.6165 19.07 92.7965 19 93.0165 19H96.8865C97.1065 19 97.2865 19.07 97.4265 19.21C97.5665 19.35 97.6365 19.53 97.6365 19.75V31.96C97.6365 33.26 97.9465 34.24 98.5665 34.9C99.2065 35.54 100.096 35.86 101.236 35.86C102.356 35.86 103.226 35.54 103.846 34.9C104.486 34.24 104.806 33.26 104.806 31.96V19.75C104.806 19.53 104.876 19.35 105.016 19.21C105.176 19.07 105.356 19 105.556 19H109.456C109.656 19 109.826 19.07 109.966 19.21C110.126 19.35 110.206 19.53 110.206 19.75V31.99C110.206 33.89 109.836 35.46 109.096 36.7C108.356 37.92 107.316 38.83 105.976 39.43C104.636 40.01 103.056 40.3 101.236 40.3ZM113.408 40C113.228 40 113.068 39.94 112.928 39.82C112.808 39.68 112.748 39.53 112.748 39.37C112.748 39.31 112.758 39.25 112.778 39.19C112.798 39.13 112.828 39.07 112.868 39.01L119.408 29.29L113.348 19.99C113.288 19.87 113.258 19.75 113.258 19.63C113.258 19.47 113.318 19.33 113.438 19.21C113.558 19.07 113.708 19 113.888 19H118.238C118.538 19 118.768 19.08 118.928 19.24C119.088 19.38 119.198 19.51 119.258 19.63L122.858 25.09L126.488 19.63C126.568 19.51 126.688 19.38 126.848 19.24C127.008 19.08 127.238 19 127.538 19H131.648C131.828 19 131.978 19.07 132.098 19.21C132.238 19.33 132.308 19.47 132.308 19.63C132.308 19.77 132.268 19.89 132.188 19.99L126.098 29.26L132.698 39.01C132.738 39.07 132.758 39.13 132.758 39.19C132.778 39.25 132.788 39.31 132.788 39.37C132.788 39.53 132.728 39.68 132.608 39.82C132.488 39.94 132.338 40 132.158 40H127.688C127.388 40 127.148 39.93 126.968 39.79C126.808 39.63 126.698 39.5 126.638 39.4L122.648 33.64L118.748 39.4C118.688 39.5 118.578 39.63 118.418 39.79C118.258 39.93 118.028 40 117.728 40H113.408ZM136.43 40C136.21 40 136.03 39.93 135.89 39.79C135.75 39.65 135.68 39.47 135.68 39.25V19.75C135.68 19.53 135.75 19.35 135.89 19.21C136.03 19.07 136.21 19 136.43 19H150.44C150.66 19 150.84 19.07 150.98 19.21C151.12 19.35 151.19 19.53 151.19 19.75V22.57C151.19 22.79 151.12 22.97 150.98 23.11C150.84 23.25 150.66 23.32 150.44 23.32H140.87V27.37H149.78C150 27.37 150.18 27.45 150.32 27.61C150.46 27.75 150.53 27.93 150.53 28.15V30.76C150.53 30.96 150.46 31.14 150.32 31.3C150.18 31.44 150 31.51 149.78 31.51H140.87V35.68H150.68C150.9 35.68 151.08 35.75 151.22 35.89C151.36 36.03 151.43 36.21 151.43 36.43V39.25C151.43 39.47 151.36 39.65 151.22 39.79C151.08 39.93 150.9 40 150.68 40H136.43ZM156.041 40C155.821 40 155.641 39.93 155.501 39.79C155.361 39.65 155.291 39.47 155.291 39.25V19.75C155.291 19.53 155.361 19.35 155.501 19.21C155.641 19.07 155.821 19 156.041 19H163.841C165.801 19 167.471 19.32 168.851 19.96C170.231 20.58 171.291 21.5 172.031 22.72C172.771 23.92 173.171 25.41 173.231 27.19C173.251 28.07 173.261 28.84 173.261 29.5C173.261 30.16 173.251 30.92 173.231 31.78C173.151 33.64 172.751 35.18 172.031 36.4C171.331 37.62 170.301 38.53 168.941 39.13C167.601 39.71 165.951 40 163.991 40H156.041ZM160.661 35.68H163.841C164.701 35.68 165.411 35.55 165.971 35.29C166.551 35.01 166.981 34.58 167.261 34C167.561 33.42 167.721 32.66 167.741 31.72C167.781 31.14 167.801 30.62 167.801 30.16C167.821 29.7 167.821 29.24 167.801 28.78C167.801 28.32 167.781 27.81 167.741 27.25C167.701 25.89 167.341 24.9 166.661 24.28C166.001 23.64 165.011 23.32 163.691 23.32H160.661V35.68ZM185.795 40.3C183.955 40.3 182.355 40 180.995 39.4C179.635 38.8 178.575 37.9 177.815 36.7C177.055 35.48 176.635 33.96 176.555 32.14C176.535 31.28 176.525 30.42 176.525 29.56C176.525 28.7 176.535 27.83 176.555 26.95C176.635 25.15 177.055 23.64 177.815 22.42C178.595 21.18 179.665 20.25 181.025 19.63C182.385 19.01 183.975 18.7 185.795 18.7C187.595 18.7 189.175 19.01 190.535 19.63C191.915 20.25 192.995 21.18 193.775 22.42C194.555 23.64 194.975 25.15 195.035 26.95C195.075 27.83 195.095 28.7 195.095 29.56C195.095 30.42 195.075 31.28 195.035 32.14C194.955 33.96 194.535 35.48 193.775 36.7C193.015 37.9 191.955 38.8 190.595 39.4C189.235 40 187.635 40.3 185.795 40.3ZM185.795 35.98C186.855 35.98 187.715 35.66 188.375 35.02C189.055 34.38 189.415 33.36 189.455 31.96C189.495 31.08 189.515 30.25 189.515 29.47C189.515 28.69 189.495 27.88 189.455 27.04C189.415 26.1 189.235 25.34 188.915 24.76C188.615 24.16 188.195 23.72 187.655 23.44C187.115 23.16 186.495 23.02 185.795 23.02C185.115 23.02 184.505 23.16 183.965 23.44C183.425 23.72 182.995 24.16 182.675 24.76C182.355 25.34 182.175 26.1 182.135 27.04C182.115 27.88 182.105 28.69 182.105 29.47C182.105 30.25 182.115 31.08 182.135 31.96C182.195 33.36 182.555 34.38 183.215 35.02C183.875 35.66 184.735 35.98 185.795 35.98ZM204.378 40C204.038 40 203.768 39.91 203.568 39.73C203.368 39.55 203.228 39.34 203.148 39.1L197.028 19.9C196.988 19.8 196.968 19.71 196.968 19.63C196.968 19.47 197.028 19.33 197.148 19.21C197.288 19.07 197.448 19 197.628 19H201.348C201.668 19 201.918 19.09 202.098 19.27C202.278 19.45 202.388 19.62 202.428 19.78L206.658 33.64L210.918 19.78C210.978 19.62 211.088 19.45 211.248 19.27C211.428 19.09 211.678 19 211.998 19H215.718C215.898 19 216.048 19.07 216.168 19.21C216.308 19.33 216.378 19.47 216.378 19.63C216.378 19.71 216.358 19.8 216.318 19.9L210.198 39.1C210.118 39.34 209.978 39.55 209.778 39.73C209.598 39.91 209.328 40 208.968 40H204.378ZM216.759 40C216.599 40 216.449 39.94 216.309 39.82C216.189 39.68 216.129 39.53 216.129 39.37C216.129 39.27 216.139 39.18 216.159 39.1L223.209 19.84C223.269 19.62 223.389 19.43 223.569 19.27C223.769 19.09 224.039 19 224.379 19H228.819C229.159 19 229.419 19.09 229.599 19.27C229.799 19.43 229.929 19.62 229.989 19.84L237.009 39.1C237.049 39.18 237.069 39.27 237.069 39.37C237.069 39.53 236.999 39.68 236.859 39.82C236.739 39.94 236.589 40 236.409 40H232.719C232.419 40 232.189 39.93 232.029 39.79C231.889 39.63 231.799 39.49 231.759 39.37L230.589 36.31H222.579L221.439 39.37C221.399 39.49 221.309 39.63 221.169 39.79C221.029 39.93 220.789 40 220.449 40H216.759ZM223.809 31.99H229.389L226.569 24.07L223.809 31.99ZM243.115 40C242.895 40 242.715 39.93 242.575 39.79C242.435 39.65 242.365 39.47 242.365 39.25V23.71H237.025C236.805 23.71 236.625 23.64 236.485 23.5C236.345 23.34 236.275 23.16 236.275 22.96V19.75C236.275 19.53 236.345 19.35 236.485 19.21C236.625 19.07 236.805 19 237.025 19H253.165C253.385 19 253.565 19.07 253.705 19.21C253.845 19.35 253.915 19.53 253.915 19.75V22.96C253.915 23.16 253.845 23.34 253.705 23.5C253.565 23.64 253.385 23.71 253.165 23.71H247.825V39.25C247.825 39.47 247.755 39.65 247.615 39.79C247.475 39.93 247.295 40 247.075 40H243.115ZM257.841 40C257.621 40 257.441 39.93 257.301 39.79C257.161 39.65 257.091 39.47 257.091 39.25V19.75C257.091 19.53 257.161 19.35 257.301 19.21C257.441 19.07 257.621 19 257.841 19H261.861C262.081 19 262.261 19.07 262.401 19.21C262.541 19.35 262.611 19.53 262.611 19.75V39.25C262.611 39.47 262.541 39.65 262.401 39.79C262.261 39.93 262.081 40 261.861 40H257.841ZM275.848 40.3C274.008 40.3 272.408 40 271.048 39.4C269.688 38.8 268.628 37.9 267.868 36.7C267.108 35.48 266.688 33.96 266.608 32.14C266.588 31.28 266.578 30.42 266.578 29.56C266.578 28.7 266.588 27.83 266.608 26.95C266.688 25.15 267.108 23.64 267.868 22.42C268.648 21.18 269.718 20.25 271.078 19.63C272.438 19.01 274.028 18.7 275.848 18.7C277.648 18.7 279.228 19.01 280.588 19.63C281.968 20.25 283.048 21.18 283.828 22.42C284.608 23.64 285.028 25.15 285.088 26.95C285.128 27.83 285.148 28.7 285.148 29.56C285.148 30.42 285.128 31.28 285.088 32.14C285.008 33.96 284.588 35.48 283.828 36.7C283.068 37.9 282.008 38.8 280.648 39.4C279.288 40 277.688 40.3 275.848 40.3ZM275.848 35.98C276.908 35.98 277.768 35.66 278.428 35.02C279.108 34.38 279.468 33.36 279.508 31.96C279.548 31.08 279.568 30.25 279.568 29.47C279.568 28.69 279.548 27.88 279.508 27.04C279.468 26.1 279.288 25.34 278.968 24.76C278.668 24.16 278.248 23.72 277.708 23.44C277.168 23.16 276.548 23.02 275.848 23.02C275.168 23.02 274.558 23.16 274.018 23.44C273.478 23.72 273.048 24.16 272.728 24.76C272.408 25.34 272.228 26.1 272.188 27.04C272.168 27.88 272.158 28.69 272.158 29.47C272.158 30.25 272.168 31.08 272.188 31.96C272.248 33.36 272.608 34.38 273.268 35.02C273.928 35.66 274.788 35.98 275.848 35.98ZM289.825 40C289.605 40 289.425 39.93 289.285 39.79C289.145 39.65 289.075 39.47 289.075 39.25V19.75C289.075 19.53 289.145 19.35 289.285 19.21C289.425 19.07 289.605 19 289.825 19H293.005C293.345 19 293.585 19.08 293.725 19.24C293.885 19.38 293.985 19.49 294.025 19.57L301.345 31.12V19.75C301.345 19.53 301.415 19.35 301.555 19.21C301.695 19.07 301.875 19 302.095 19H305.695C305.915 19 306.095 19.07 306.235 19.21C306.375 19.35 306.445 19.53 306.445 19.75V39.25C306.445 39.45 306.375 39.63 306.235 39.79C306.095 39.93 305.915 40 305.695 40H302.485C302.165 40 301.925 39.92 301.765 39.76C301.625 39.6 301.535 39.49 301.495 39.43L294.175 28.33V39.25C294.175 39.47 294.105 39.65 293.965 39.79C293.825 39.93 293.645 40 293.425 40H289.825Z" fill="white"/>
<path d="M76.5505 61C76.4605 61 76.384 60.973 76.321 60.919C76.267 60.856 76.24 60.7795 76.24 60.6895V52.7515H73.648C73.558 52.7515 73.4815 52.7245 73.4185 52.6705C73.3645 52.6075 73.3375 52.531 73.3375 52.441V51.874C73.3375 51.775 73.3645 51.6985 73.4185 51.6445C73.4815 51.5815 73.558 51.55 73.648 51.55H80.155C80.254 51.55 80.3305 51.5815 80.3845 51.6445C80.4475 51.6985 80.479 51.775 80.479 51.874V52.441C80.479 52.531 80.4475 52.6075 80.3845 52.6705C80.3305 52.7245 80.254 52.7515 80.155 52.7515H77.5765V60.6895C77.5765 60.7795 77.545 60.856 77.482 60.919C77.428 60.973 77.3515 61 77.2525 61H76.5505ZM83.0305 61.135C82.4545 61.135 81.964 61.009 81.559 60.757C81.163 60.496 80.8615 60.136 80.6545 59.677C80.4475 59.218 80.344 58.6915 80.344 58.0975V54.2905C80.344 54.2005 80.371 54.1285 80.425 54.0745C80.488 54.0115 80.5645 53.98 80.6545 53.98H81.3295C81.4195 53.98 81.4915 54.0115 81.5455 54.0745C81.6085 54.1285 81.64 54.2005 81.64 54.2905V58.03C81.64 59.371 82.225 60.0415 83.395 60.0415C83.953 60.0415 84.3985 59.866 84.7315 59.515C85.0735 59.155 85.2445 58.66 85.2445 58.03V54.2905C85.2445 54.2005 85.2715 54.1285 85.3255 54.0745C85.3885 54.0115 85.465 53.98 85.555 53.98H86.2165C86.3155 53.98 86.392 54.0115 86.446 54.0745C86.5 54.1285 86.527 54.2005 86.527 54.2905V60.6895C86.527 60.7795 86.5 60.856 86.446 60.919C86.392 60.973 86.3155 61 86.2165 61H85.5955C85.5055 61 85.429 60.973 85.366 60.919C85.312 60.856 85.285 60.7795 85.285 60.6895V60.0955C85.042 60.4105 84.745 60.6625 84.394 60.8515C84.052 61.0405 83.5975 61.135 83.0305 61.135ZM90.9356 61C90.4316 61 90.0221 60.9055 89.7071 60.7165C89.3921 60.5185 89.1626 60.244 89.0186 59.893C88.8746 59.533 88.8026 59.11 88.8026 58.624V55.06H87.7496C87.6596 55.06 87.5831 55.033 87.5201 54.979C87.4661 54.916 87.4391 54.8395 87.4391 54.7495V54.2905C87.4391 54.2005 87.4661 54.1285 87.5201 54.0745C87.5831 54.0115 87.6596 53.98 87.7496 53.98H88.8026V51.7255C88.8026 51.6355 88.8296 51.5635 88.8836 51.5095C88.9466 51.4465 89.0231 51.415 89.1131 51.415H89.7476C89.8376 51.415 89.9096 51.4465 89.9636 51.5095C90.0266 51.5635 90.0581 51.6355 90.0581 51.7255V53.98H91.7321C91.8221 53.98 91.8941 54.0115 91.9481 54.0745C92.0111 54.1285 92.0426 54.2005 92.0426 54.2905V54.7495C92.0426 54.8395 92.0111 54.916 91.9481 54.979C91.8941 55.033 91.8221 55.06 91.7321 55.06H90.0581V58.5295C90.0581 58.9525 90.1301 59.2855 90.2741 59.5285C90.4181 59.7715 90.6746 59.893 91.0436 59.893H91.8671C91.9571 59.893 92.0291 59.9245 92.0831 59.9875C92.1461 60.0415 92.1776 60.1135 92.1776 60.2035V60.6895C92.1776 60.7795 92.1461 60.856 92.0831 60.919C92.0291 60.973 91.9571 61 91.8671 61H90.9356ZM96.0065 61.135C95.3225 61.135 94.751 61.0045 94.292 60.7435C93.833 60.4825 93.482 60.1225 93.239 59.6635C92.996 59.1955 92.861 58.6645 92.834 58.0705C92.825 57.9175 92.8205 57.724 92.8205 57.49C92.8205 57.247 92.825 57.0535 92.834 56.9095C92.861 56.3065 92.996 55.7755 93.239 55.3165C93.491 54.8575 93.8465 54.4975 94.3055 54.2365C94.7645 53.9755 95.3315 53.845 96.0065 53.845C96.6815 53.845 97.2485 53.9755 97.7075 54.2365C98.1665 54.4975 98.5175 54.8575 98.7605 55.3165C99.0125 55.7755 99.152 56.3065 99.179 56.9095C99.188 57.0535 99.1925 57.247 99.1925 57.49C99.1925 57.724 99.188 57.9175 99.179 58.0705C99.152 58.6645 99.017 59.1955 98.774 59.6635C98.531 60.1225 98.18 60.4825 97.721 60.7435C97.262 61.0045 96.6905 61.135 96.0065 61.135ZM96.0065 60.0955C96.5645 60.0955 97.01 59.92 97.343 59.569C97.676 59.209 97.856 58.687 97.883 58.003C97.892 57.868 97.8965 57.697 97.8965 57.49C97.8965 57.283 97.892 57.112 97.883 56.977C97.856 56.293 97.676 55.7755 97.343 55.4245C97.01 55.0645 96.5645 54.8845 96.0065 54.8845C95.4485 54.8845 94.9985 55.0645 94.6565 55.4245C94.3235 55.7755 94.148 56.293 94.13 56.977C94.121 57.112 94.1165 57.283 94.1165 57.49C94.1165 57.697 94.121 57.868 94.13 58.003C94.148 58.687 94.3235 59.209 94.6565 59.569C94.9985 59.92 95.4485 60.0955 96.0065 60.0955ZM100.856 61C100.766 61 100.689 60.973 100.626 60.919C100.572 60.856 100.545 60.7795 100.545 60.6895V54.304C100.545 54.214 100.572 54.1375 100.626 54.0745C100.689 54.0115 100.766 53.98 100.856 53.98H101.477C101.567 53.98 101.643 54.0115 101.706 54.0745C101.769 54.1375 101.801 54.214 101.801 54.304V54.898C101.981 54.592 102.228 54.3625 102.543 54.2095C102.858 54.0565 103.236 53.98 103.677 53.98H104.217C104.307 53.98 104.379 54.0115 104.433 54.0745C104.487 54.1285 104.514 54.2005 104.514 54.2905V54.844C104.514 54.934 104.487 55.006 104.433 55.06C104.379 55.114 104.307 55.141 104.217 55.141H103.407C102.921 55.141 102.539 55.285 102.26 55.573C101.981 55.852 101.841 56.2345 101.841 56.7205V60.6895C101.841 60.7795 101.81 60.856 101.747 60.919C101.684 60.973 101.607 61 101.517 61H100.856ZM105.647 61C105.557 61 105.48 60.973 105.417 60.919C105.363 60.856 105.336 60.7795 105.336 60.6895V54.2905C105.336 54.2005 105.363 54.1285 105.417 54.0745C105.48 54.0115 105.557 53.98 105.647 53.98H106.295C106.385 53.98 106.457 54.0115 106.511 54.0745C106.565 54.1285 106.592 54.2005 106.592 54.2905V60.6895C106.592 60.7795 106.565 60.856 106.511 60.919C106.457 60.973 106.385 61 106.295 61H105.647ZM105.539 52.6705C105.449 52.6705 105.372 52.6435 105.309 52.5895C105.255 52.5265 105.228 52.45 105.228 52.36V51.631C105.228 51.541 105.255 51.469 105.309 51.415C105.372 51.352 105.449 51.3205 105.539 51.3205H106.389C106.479 51.3205 106.551 51.352 106.605 51.415C106.668 51.469 106.7 51.541 106.7 51.631V52.36C106.7 52.45 106.668 52.5265 106.605 52.5895C106.551 52.6435 106.479 52.6705 106.389 52.6705H105.539ZM110.226 61.135C109.776 61.135 109.366 61.045 108.997 60.865C108.628 60.685 108.331 60.442 108.106 60.136C107.881 59.83 107.769 59.4835 107.769 59.0965C107.769 58.4755 108.021 57.9805 108.525 57.6115C109.029 57.2425 109.686 56.9995 110.496 56.8825L112.507 56.599V56.2075C112.507 55.7755 112.381 55.438 112.129 55.195C111.886 54.952 111.486 54.8305 110.928 54.8305C110.523 54.8305 110.194 54.9115 109.942 55.0735C109.699 55.2355 109.528 55.4425 109.429 55.6945C109.375 55.8295 109.281 55.897 109.146 55.897H108.538C108.439 55.897 108.363 55.87 108.309 55.816C108.264 55.753 108.241 55.681 108.241 55.6C108.241 55.465 108.291 55.2985 108.39 55.1005C108.498 54.9025 108.66 54.709 108.876 54.52C109.092 54.331 109.366 54.1735 109.699 54.0475C110.041 53.9125 110.455 53.845 110.941 53.845C111.481 53.845 111.936 53.917 112.305 54.061C112.674 54.196 112.962 54.3805 113.169 54.6145C113.385 54.8485 113.538 55.114 113.628 55.411C113.727 55.708 113.776 56.0095 113.776 56.3155V60.6895C113.776 60.7795 113.745 60.856 113.682 60.919C113.628 60.973 113.556 61 113.466 61H112.845C112.746 61 112.669 60.973 112.615 60.919C112.561 60.856 112.534 60.7795 112.534 60.6895V60.109C112.417 60.271 112.26 60.433 112.062 60.595C111.864 60.748 111.616 60.8785 111.319 60.9865C111.022 61.0855 110.658 61.135 110.226 61.135ZM110.509 60.1225C110.878 60.1225 111.216 60.046 111.522 59.893C111.828 59.731 112.066 59.4835 112.237 59.1505C112.417 58.8175 112.507 58.399 112.507 57.895V57.517L110.941 57.7465C110.302 57.8365 109.821 57.9895 109.497 58.2055C109.173 58.4125 109.011 58.678 109.011 59.002C109.011 59.254 109.083 59.4655 109.227 59.6365C109.38 59.7985 109.569 59.92 109.794 60.001C110.028 60.082 110.266 60.1225 110.509 60.1225ZM115.704 61C115.614 61 115.537 60.973 115.474 60.919C115.42 60.856 115.393 60.7795 115.393 60.6895V51.7255C115.393 51.6355 115.42 51.5635 115.474 51.5095C115.537 51.4465 115.614 51.415 115.704 51.415H116.338C116.437 51.415 116.514 51.4465 116.568 51.5095C116.622 51.5635 116.649 51.6355 116.649 51.7255V60.6895C116.649 60.7795 116.622 60.856 116.568 60.919C116.514 60.973 116.437 61 116.338 61H115.704ZM121.782 61C121.683 61 121.607 60.973 121.553 60.919C121.499 60.856 121.472 60.7795 121.472 60.6895V51.874C121.472 51.775 121.499 51.6985 121.553 51.6445C121.607 51.5815 121.683 51.55 121.782 51.55H127.358C127.457 51.55 127.533 51.5815 127.587 51.6445C127.641 51.6985 127.668 51.775 127.668 51.874V52.387C127.668 52.486 127.641 52.5625 127.587 52.6165C127.533 52.6705 127.457 52.6975 127.358 52.6975H122.768V55.654H127.061C127.16 55.654 127.236 55.6855 127.29 55.7485C127.344 55.8025 127.371 55.879 127.371 55.978V56.4775C127.371 56.5675 127.344 56.644 127.29 56.707C127.236 56.761 127.16 56.788 127.061 56.788H122.768V59.8525H127.466C127.565 59.8525 127.641 59.8795 127.695 59.9335C127.749 59.9875 127.776 60.064 127.776 60.163V60.6895C127.776 60.7795 127.749 60.856 127.695 60.919C127.641 60.973 127.565 61 127.466 61H121.782ZM128.822 61C128.75 61 128.682 60.973 128.619 60.919C128.565 60.865 128.538 60.7975 128.538 60.7165C128.538 60.6895 128.543 60.658 128.552 60.622C128.57 60.577 128.597 60.5275 128.633 60.4735L130.982 57.409L128.781 54.5065C128.745 54.4525 128.718 54.4075 128.7 54.3715C128.691 54.3355 128.687 54.2995 128.687 54.2635C128.687 54.1825 128.714 54.115 128.768 54.061C128.822 54.007 128.889 53.98 128.97 53.98H129.659C129.758 53.98 129.83 54.007 129.875 54.061C129.929 54.106 129.974 54.151 130.01 54.196L131.805 56.5315L133.601 54.2095C133.637 54.1645 133.677 54.115 133.722 54.061C133.776 54.007 133.853 53.98 133.952 53.98H134.613C134.694 53.98 134.762 54.007 134.816 54.061C134.87 54.115 134.897 54.1825 134.897 54.2635C134.897 54.2995 134.888 54.3355 134.87 54.3715C134.861 54.4075 134.838 54.4525 134.802 54.5065L132.575 57.436L134.924 60.4735C134.96 60.5275 134.982 60.5725 134.991 60.6085C135.009 60.6445 135.018 60.6805 135.018 60.7165C135.018 60.7975 134.991 60.865 134.937 60.919C134.883 60.973 134.816 61 134.735 61H134.019C133.929 61 133.857 60.9775 133.803 60.9325C133.749 60.8875 133.704 60.8425 133.668 60.7975L131.765 58.327L129.861 60.7975C129.825 60.8335 129.78 60.8785 129.726 60.9325C129.681 60.9775 129.609 61 129.51 61H128.822ZM136.41 61C136.32 61 136.243 60.973 136.18 60.919C136.126 60.856 136.099 60.7795 136.099 60.6895V51.7255C136.099 51.6355 136.126 51.5635 136.18 51.5095C136.243 51.4465 136.32 51.415 136.41 51.415H137.085C137.184 51.415 137.26 51.4465 137.314 51.5095C137.368 51.5635 137.395 51.6355 137.395 51.7255V54.871C137.638 54.565 137.935 54.3175 138.286 54.1285C138.637 53.9395 139.083 53.845 139.623 53.845C140.208 53.845 140.703 53.9755 141.108 54.2365C141.522 54.4885 141.832 54.844 142.039 55.303C142.255 55.753 142.363 56.2795 142.363 56.8825V60.6895C142.363 60.7795 142.336 60.856 142.282 60.919C142.228 60.973 142.152 61 142.053 61H141.378C141.288 61 141.211 60.973 141.148 60.919C141.094 60.856 141.067 60.7795 141.067 60.6895V56.95C141.067 56.32 140.914 55.8295 140.608 55.4785C140.302 55.1185 139.852 54.9385 139.258 54.9385C138.7 54.9385 138.25 55.1185 137.908 55.4785C137.566 55.8295 137.395 56.32 137.395 56.95V60.6895C137.395 60.7795 137.368 60.856 137.314 60.919C137.26 60.973 137.184 61 137.085 61H136.41ZM144.285 61C144.195 61 144.119 60.973 144.056 60.919C144.002 60.856 143.975 60.7795 143.975 60.6895V54.2905C143.975 54.2005 144.002 54.1285 144.056 54.0745C144.119 54.0115 144.195 53.98 144.285 53.98H144.933C145.023 53.98 145.095 54.0115 145.149 54.0745C145.203 54.1285 145.23 54.2005 145.23 54.2905V60.6895C145.23 60.7795 145.203 60.856 145.149 60.919C145.095 60.973 145.023 61 144.933 61H144.285ZM144.177 52.6705C144.087 52.6705 144.011 52.6435 143.948 52.5895C143.894 52.5265 143.867 52.45 143.867 52.36V51.631C143.867 51.541 143.894 51.469 143.948 51.415C144.011 51.352 144.087 51.3205 144.177 51.3205H145.028C145.118 51.3205 145.19 51.352 145.244 51.415C145.307 51.469 145.338 51.541 145.338 51.631V52.36C145.338 52.45 145.307 52.5265 145.244 52.5895C145.19 52.6435 145.118 52.6705 145.028 52.6705H144.177ZM150.376 61.135C149.836 61.135 149.386 61.0405 149.026 60.8515C148.666 60.6535 148.378 60.4105 148.162 60.1225V60.6895C148.162 60.7795 148.131 60.856 148.068 60.919C148.014 60.973 147.942 61 147.852 61H147.231C147.141 61 147.064 60.973 147.001 60.919C146.947 60.856 146.92 60.7795 146.92 60.6895V51.7255C146.92 51.6355 146.947 51.5635 147.001 51.5095C147.064 51.4465 147.141 51.415 147.231 51.415H147.879C147.978 51.415 148.054 51.4465 148.108 51.5095C148.162 51.5635 148.189 51.6355 148.189 51.7255V54.8305C148.414 54.5515 148.702 54.3175 149.053 54.1285C149.413 53.9395 149.854 53.845 150.376 53.845C150.88 53.845 151.308 53.935 151.659 54.115C152.019 54.286 152.311 54.5245 152.536 54.8305C152.77 55.1365 152.946 55.483 153.063 55.87C153.18 56.257 153.243 56.662 153.252 57.085C153.261 57.229 153.265 57.364 153.265 57.49C153.265 57.616 153.261 57.751 153.252 57.895C153.243 58.327 153.18 58.7365 153.063 59.1235C152.946 59.5105 152.77 59.857 152.536 60.163C152.311 60.46 152.019 60.6985 151.659 60.8785C151.308 61.0495 150.88 61.135 150.376 61.135ZM150.093 60.0415C150.561 60.0415 150.925 59.9425 151.186 59.7445C151.456 59.5375 151.65 59.272 151.767 58.948C151.884 58.615 151.951 58.2595 151.969 57.8815C151.978 57.6205 151.978 57.3595 151.969 57.0985C151.951 56.7205 151.884 56.3695 151.767 56.0455C151.65 55.7125 151.456 55.447 151.186 55.249C150.925 55.042 150.561 54.9385 150.093 54.9385C149.67 54.9385 149.319 55.0375 149.04 55.2355C148.761 55.4335 148.549 55.6855 148.405 55.9915C148.27 56.2975 148.198 56.608 148.189 56.923C148.18 57.067 148.176 57.2425 148.176 57.4495C148.176 57.6475 148.18 57.8185 148.189 57.9625C148.207 58.2955 148.279 58.624 148.405 58.948C148.54 59.263 148.743 59.524 149.013 59.731C149.292 59.938 149.652 60.0415 150.093 60.0415ZM154.909 61C154.819 61 154.742 60.973 154.679 60.919C154.625 60.856 154.598 60.7795 154.598 60.6895V54.2905C154.598 54.2005 154.625 54.1285 154.679 54.0745C154.742 54.0115 154.819 53.98 154.909 53.98H155.557C155.647 53.98 155.719 54.0115 155.773 54.0745C155.827 54.1285 155.854 54.2005 155.854 54.2905V60.6895C155.854 60.7795 155.827 60.856 155.773 60.919C155.719 60.973 155.647 61 155.557 61H154.909ZM154.801 52.6705C154.711 52.6705 154.634 52.6435 154.571 52.5895C154.517 52.5265 154.49 52.45 154.49 52.36V51.631C154.49 51.541 154.517 51.469 154.571 51.415C154.634 51.352 154.711 51.3205 154.801 51.3205H155.651C155.741 51.3205 155.813 51.352 155.867 51.415C155.93 51.469 155.962 51.541 155.962 51.631V52.36C155.962 52.45 155.93 52.5265 155.867 52.5895C155.813 52.6435 155.741 52.6705 155.651 52.6705H154.801ZM160.271 61C159.767 61 159.357 60.9055 159.042 60.7165C158.727 60.5185 158.498 60.244 158.354 59.893C158.21 59.533 158.138 59.11 158.138 58.624V55.06H157.085C156.995 55.06 156.918 55.033 156.855 54.979C156.801 54.916 156.774 54.8395 156.774 54.7495V54.2905C156.774 54.2005 156.801 54.1285 156.855 54.0745C156.918 54.0115 156.995 53.98 157.085 53.98H158.138V51.7255C158.138 51.6355 158.165 51.5635 158.219 51.5095C158.282 51.4465 158.358 51.415 158.448 51.415H159.083C159.173 51.415 159.245 51.4465 159.299 51.5095C159.362 51.5635 159.393 51.6355 159.393 51.7255V53.98H161.067C161.157 53.98 161.229 54.0115 161.283 54.0745C161.346 54.1285 161.378 54.2005 161.378 54.2905V54.7495C161.378 54.8395 161.346 54.916 161.283 54.979C161.229 55.033 161.157 55.06 161.067 55.06H159.393V58.5295C159.393 58.9525 159.465 59.2855 159.609 59.5285C159.753 59.7715 160.01 59.893 160.379 59.893H161.202C161.292 59.893 161.364 59.9245 161.418 59.9875C161.481 60.0415 161.513 60.1135 161.513 60.2035V60.6895C161.513 60.7795 161.481 60.856 161.418 60.919C161.364 60.973 161.292 61 161.202 61H160.271ZM162.777 61C162.687 61 162.61 60.973 162.547 60.919C162.493 60.856 162.466 60.7795 162.466 60.6895V54.2905C162.466 54.2005 162.493 54.1285 162.547 54.0745C162.61 54.0115 162.687 53.98 162.777 53.98H163.425C163.515 53.98 163.587 54.0115 163.641 54.0745C163.695 54.1285 163.722 54.2005 163.722 54.2905V60.6895C163.722 60.7795 163.695 60.856 163.641 60.919C163.587 60.973 163.515 61 163.425 61H162.777ZM162.669 52.6705C162.579 52.6705 162.502 52.6435 162.439 52.5895C162.385 52.5265 162.358 52.45 162.358 52.36V51.631C162.358 51.541 162.385 51.469 162.439 51.415C162.502 51.352 162.579 51.3205 162.669 51.3205H163.519C163.609 51.3205 163.681 51.352 163.735 51.415C163.798 51.469 163.83 51.541 163.83 51.631V52.36C163.83 52.45 163.798 52.5265 163.735 52.5895C163.681 52.6435 163.609 52.6705 163.519 52.6705H162.669ZM168.3 61.135C167.616 61.135 167.045 61.0045 166.586 60.7435C166.127 60.4825 165.776 60.1225 165.533 59.6635C165.29 59.1955 165.155 58.6645 165.128 58.0705C165.119 57.9175 165.114 57.724 165.114 57.49C165.114 57.247 165.119 57.0535 165.128 56.9095C165.155 56.3065 165.29 55.7755 165.533 55.3165C165.785 54.8575 166.14 54.4975 166.599 54.2365C167.058 53.9755 167.625 53.845 168.3 53.845C168.975 53.845 169.542 53.9755 170.001 54.2365C170.46 54.4975 170.811 54.8575 171.054 55.3165C171.306 55.7755 171.446 56.3065 171.473 56.9095C171.482 57.0535 171.486 57.247 171.486 57.49C171.486 57.724 171.482 57.9175 171.473 58.0705C171.446 58.6645 171.311 59.1955 171.068 59.6635C170.825 60.1225 170.474 60.4825 170.015 60.7435C169.556 61.0045 168.984 61.135 168.3 61.135ZM168.3 60.0955C168.858 60.0955 169.304 59.92 169.637 59.569C169.97 59.209 170.15 58.687 170.177 58.003C170.186 57.868 170.19 57.697 170.19 57.49C170.19 57.283 170.186 57.112 170.177 56.977C170.15 56.293 169.97 55.7755 169.637 55.4245C169.304 55.0645 168.858 54.8845 168.3 54.8845C167.742 54.8845 167.292 55.0645 166.95 55.4245C166.617 55.7755 166.442 56.293 166.424 56.977C166.415 57.112 166.41 57.283 166.41 57.49C166.41 57.697 166.415 57.868 166.424 58.003C166.442 58.687 166.617 59.209 166.95 59.569C167.292 59.92 167.742 60.0955 168.3 60.0955ZM173.15 61C173.06 61 172.983 60.973 172.92 60.919C172.866 60.856 172.839 60.7795 172.839 60.6895V54.2905C172.839 54.2005 172.866 54.1285 172.92 54.0745C172.983 54.0115 173.06 53.98 173.15 53.98H173.784C173.874 53.98 173.946 54.0115 174 54.0745C174.063 54.1285 174.095 54.2005 174.095 54.2905V54.8845C174.329 54.5785 174.621 54.331 174.972 54.142C175.332 53.944 175.791 53.845 176.349 53.845C176.934 53.845 177.429 53.9755 177.834 54.2365C178.248 54.4885 178.559 54.844 178.766 55.303C178.973 55.753 179.076 56.2795 179.076 56.8825V60.6895C179.076 60.7795 179.049 60.856 178.995 60.919C178.941 60.973 178.869 61 178.779 61H178.104C178.014 61 177.938 60.973 177.875 60.919C177.821 60.856 177.794 60.7795 177.794 60.6895V56.95C177.794 56.32 177.641 55.8295 177.335 55.4785C177.029 55.1185 176.579 54.9385 175.985 54.9385C175.427 54.9385 174.977 55.1185 174.635 55.4785C174.302 55.8295 174.135 56.32 174.135 56.95V60.6895C174.135 60.7795 174.104 60.856 174.041 60.919C173.987 60.973 173.915 61 173.825 61H173.15ZM184.146 61C184.047 61 183.971 60.973 183.917 60.919C183.863 60.856 183.836 60.7795 183.836 60.6895V51.874C183.836 51.775 183.863 51.6985 183.917 51.6445C183.971 51.5815 184.047 51.55 184.146 51.55H187.211C188.138 51.55 188.885 51.6895 189.452 51.9685C190.019 52.2475 190.433 52.6615 190.694 53.2105C190.955 53.7505 191.09 54.4165 191.099 55.2085C191.108 55.6135 191.112 55.969 191.112 56.275C191.112 56.581 191.108 56.932 191.099 57.328C191.081 58.156 190.941 58.8445 190.68 59.3935C190.428 59.9335 190.023 60.3385 189.465 60.6085C188.916 60.8695 188.187 61 187.278 61H184.146ZM185.159 59.8525H187.211C187.832 59.8525 188.327 59.767 188.696 59.596C189.065 59.425 189.33 59.1505 189.492 58.7725C189.663 58.3945 189.753 57.895 189.762 57.274C189.78 57.004 189.789 56.77 189.789 56.572C189.789 56.365 189.789 56.1625 189.789 55.9645C189.789 55.7575 189.78 55.5235 189.762 55.2625C189.744 54.3895 189.537 53.746 189.141 53.332C188.745 52.909 188.079 52.6975 187.143 52.6975H185.159V59.8525ZM192.941 61C192.851 61 192.774 60.973 192.711 60.919C192.657 60.856 192.63 60.7795 192.63 60.6895V54.2905C192.63 54.2005 192.657 54.1285 192.711 54.0745C192.774 54.0115 192.851 53.98 192.941 53.98H193.589C193.679 53.98 193.751 54.0115 193.805 54.0745C193.859 54.1285 193.886 54.2005 193.886 54.2905V60.6895C193.886 60.7795 193.859 60.856 193.805 60.919C193.751 60.973 193.679 61 193.589 61H192.941ZM192.833 52.6705C192.743 52.6705 192.666 52.6435 192.603 52.5895C192.549 52.5265 192.522 52.45 192.522 52.36V51.631C192.522 51.541 192.549 51.469 192.603 51.415C192.666 51.352 192.743 51.3205 192.833 51.3205H193.683C193.773 51.3205 193.845 51.352 193.899 51.415C193.962 51.469 193.994 51.541 193.994 51.631V52.36C193.994 52.45 193.962 52.5265 193.899 52.5895C193.845 52.6435 193.773 52.6705 193.683 52.6705H192.833ZM198.071 61.135C197.567 61.135 197.135 61.072 196.775 60.946C196.415 60.82 196.123 60.667 195.898 60.487C195.673 60.307 195.502 60.127 195.385 59.947C195.277 59.767 195.218 59.623 195.209 59.515C195.2 59.416 195.232 59.3395 195.304 59.2855C195.376 59.2315 195.448 59.2045 195.52 59.2045H196.114C196.168 59.2045 196.208 59.2135 196.235 59.2315C196.271 59.2405 196.316 59.2765 196.37 59.3395C196.487 59.4655 196.618 59.5915 196.762 59.7175C196.906 59.8435 197.081 59.947 197.288 60.028C197.504 60.109 197.77 60.1495 198.085 60.1495C198.544 60.1495 198.922 60.064 199.219 59.893C199.516 59.713 199.664 59.452 199.664 59.11C199.664 58.885 199.601 58.705 199.475 58.57C199.358 58.435 199.142 58.3135 198.827 58.2055C198.521 58.0975 198.098 57.985 197.558 57.868C197.018 57.742 196.591 57.589 196.276 57.409C195.961 57.22 195.736 56.9995 195.601 56.7475C195.466 56.4865 195.398 56.194 195.398 55.87C195.398 55.537 195.497 55.2175 195.695 54.9115C195.893 54.5965 196.181 54.34 196.559 54.142C196.946 53.944 197.428 53.845 198.004 53.845C198.472 53.845 198.872 53.9035 199.205 54.0205C199.538 54.1375 199.813 54.286 200.029 54.466C200.245 54.637 200.407 54.808 200.515 54.979C200.623 55.15 200.681 55.294 200.69 55.411C200.699 55.501 200.672 55.5775 200.609 55.6405C200.546 55.6945 200.474 55.7215 200.393 55.7215H199.826C199.763 55.7215 199.709 55.708 199.664 55.681C199.628 55.654 199.592 55.6225 199.556 55.5865C199.466 55.4695 199.358 55.3525 199.232 55.2355C199.115 55.1185 198.958 55.024 198.76 54.952C198.571 54.871 198.319 54.8305 198.004 54.8305C197.554 54.8305 197.216 54.925 196.991 55.114C196.766 55.303 196.654 55.5415 196.654 55.8295C196.654 56.0005 196.703 56.1535 196.802 56.2885C196.901 56.4235 197.09 56.545 197.369 56.653C197.648 56.761 198.062 56.878 198.611 57.004C199.205 57.121 199.673 57.2785 200.015 57.4765C200.357 57.6745 200.6 57.904 200.744 58.165C200.888 58.426 200.96 58.7275 200.96 59.0695C200.96 59.4475 200.848 59.794 200.623 60.109C200.407 60.424 200.083 60.676 199.651 60.865C199.228 61.045 198.701 61.135 198.071 61.135ZM202.51 63.565C202.42 63.565 202.343 63.5335 202.28 63.4705C202.226 63.4165 202.199 63.3445 202.199 63.2545V54.2905C202.199 54.2005 202.226 54.1285 202.28 54.0745C202.343 54.0115 202.42 53.98 202.51 53.98H203.131C203.221 53.98 203.293 54.0115 203.347 54.0745C203.41 54.1285 203.441 54.2005 203.441 54.2905V54.8845C203.657 54.5875 203.945 54.34 204.305 54.142C204.665 53.944 205.115 53.845 205.655 53.845C206.159 53.845 206.587 53.9305 206.938 54.1015C207.298 54.2725 207.59 54.5065 207.815 54.8035C208.049 55.1005 208.225 55.438 208.342 55.816C208.459 56.194 208.522 56.599 208.531 57.031C208.54 57.175 208.544 57.328 208.544 57.49C208.544 57.652 208.54 57.805 208.531 57.949C208.522 58.372 208.459 58.777 208.342 59.164C208.225 59.542 208.049 59.8795 207.815 60.1765C207.59 60.4645 207.298 60.6985 206.938 60.8785C206.587 61.0495 206.159 61.135 205.655 61.135C205.133 61.135 204.692 61.0405 204.332 60.8515C203.981 60.6535 203.693 60.4105 203.468 60.1225V63.2545C203.468 63.3445 203.441 63.4165 203.387 63.4705C203.333 63.5335 203.257 63.565 203.158 63.565H202.51ZM205.372 60.0415C205.84 60.0415 206.204 59.9425 206.465 59.7445C206.735 59.5375 206.929 59.272 207.046 58.948C207.163 58.615 207.23 58.2595 207.248 57.8815C207.257 57.6205 207.257 57.3595 207.248 57.0985C207.23 56.7205 207.163 56.3695 207.046 56.0455C206.929 55.7125 206.735 55.447 206.465 55.249C206.204 55.042 205.84 54.9385 205.372 54.9385C204.931 54.9385 204.571 55.042 204.292 55.249C204.022 55.456 203.819 55.7215 203.684 56.0455C203.558 56.3605 203.486 56.6845 203.468 57.0175C203.459 57.1615 203.455 57.3325 203.455 57.5305C203.455 57.7285 203.459 57.904 203.468 58.057C203.477 58.372 203.549 58.6825 203.684 58.9885C203.828 59.2945 204.04 59.5465 204.319 59.7445C204.598 59.9425 204.949 60.0415 205.372 60.0415ZM210.214 61C210.124 61 210.048 60.973 209.985 60.919C209.931 60.856 209.904 60.7795 209.904 60.6895V51.7255C209.904 51.6355 209.931 51.5635 209.985 51.5095C210.048 51.4465 210.124 51.415 210.214 51.415H210.849C210.948 51.415 211.024 51.4465 211.078 51.5095C211.132 51.5635 211.159 51.6355 211.159 51.7255V60.6895C211.159 60.7795 211.132 60.856 211.078 60.919C211.024 60.973 210.948 61 210.849 61H210.214ZM214.793 61.135C214.343 61.135 213.933 61.045 213.564 60.865C213.195 60.685 212.898 60.442 212.673 60.136C212.448 59.83 212.336 59.4835 212.336 59.0965C212.336 58.4755 212.588 57.9805 213.092 57.6115C213.596 57.2425 214.253 56.9995 215.063 56.8825L217.074 56.599V56.2075C217.074 55.7755 216.948 55.438 216.696 55.195C216.453 54.952 216.053 54.8305 215.495 54.8305C215.09 54.8305 214.761 54.9115 214.509 55.0735C214.266 55.2355 214.095 55.4425 213.996 55.6945C213.942 55.8295 213.848 55.897 213.713 55.897H213.105C213.006 55.897 212.93 55.87 212.876 55.816C212.831 55.753 212.808 55.681 212.808 55.6C212.808 55.465 212.858 55.2985 212.957 55.1005C213.065 54.9025 213.227 54.709 213.443 54.52C213.659 54.331 213.933 54.1735 214.266 54.0475C214.608 53.9125 215.022 53.845 215.508 53.845C216.048 53.845 216.503 53.917 216.872 54.061C217.241 54.196 217.529 54.3805 217.736 54.6145C217.952 54.8485 218.105 55.114 218.195 55.411C218.294 55.708 218.343 56.0095 218.343 56.3155V60.6895C218.343 60.7795 218.312 60.856 218.249 60.919C218.195 60.973 218.123 61 218.033 61H217.412C217.313 61 217.236 60.973 217.182 60.919C217.128 60.856 217.101 60.7795 217.101 60.6895V60.109C216.984 60.271 216.827 60.433 216.629 60.595C216.431 60.748 216.183 60.8785 215.886 60.9865C215.589 61.0855 215.225 61.135 214.793 61.135ZM215.076 60.1225C215.445 60.1225 215.783 60.046 216.089 59.893C216.395 59.731 216.633 59.4835 216.804 59.1505C216.984 58.8175 217.074 58.399 217.074 57.895V57.517L215.508 57.7465C214.869 57.8365 214.388 57.9895 214.064 58.2055C213.74 58.4125 213.578 58.678 213.578 59.002C213.578 59.254 213.65 59.4655 213.794 59.6365C213.947 59.7985 214.136 59.92 214.361 60.001C214.595 60.082 214.833 60.1225 215.076 60.1225ZM221.03 63.565C220.958 63.565 220.895 63.538 220.841 63.484C220.787 63.43 220.76 63.367 220.76 63.295C220.76 63.259 220.765 63.223 220.774 63.187C220.783 63.151 220.801 63.106 220.828 63.052L221.867 60.5815L219.289 54.493C219.244 54.385 219.221 54.3085 219.221 54.2635C219.221 54.1825 219.248 54.115 219.302 54.061C219.356 54.007 219.424 53.98 219.505 53.98H220.166C220.256 53.98 220.328 54.0025 220.382 54.0475C220.436 54.0925 220.472 54.1465 220.49 54.2095L222.542 59.1235L224.648 54.2095C224.675 54.1465 224.711 54.0925 224.756 54.0475C224.81 54.0025 224.887 53.98 224.986 53.98H225.62C225.701 53.98 225.769 54.007 225.823 54.061C225.877 54.115 225.904 54.178 225.904 54.25C225.904 54.295 225.881 54.376 225.836 54.493L222.002 63.3355C221.975 63.3985 221.935 63.4525 221.881 63.4975C221.836 63.5425 221.764 63.565 221.665 63.565H221.03ZM233.079 61.135C232.314 61.135 231.657 61.0045 231.108 60.7435C230.559 60.4735 230.136 60.064 229.839 59.515C229.542 58.957 229.376 58.2595 229.34 57.4225C229.331 57.0265 229.326 56.6485 229.326 56.2885C229.326 55.9195 229.331 55.537 229.34 55.141C229.376 54.313 229.547 53.6245 229.853 53.0755C230.168 52.5175 230.6 52.1035 231.149 51.8335C231.707 51.5545 232.35 51.415 233.079 51.415C233.817 51.415 234.461 51.5545 235.01 51.8335C235.568 52.1035 236.004 52.5175 236.319 53.0755C236.634 53.6245 236.805 54.313 236.832 55.141C236.85 55.537 236.859 55.9195 236.859 56.2885C236.859 56.6485 236.85 57.0265 236.832 57.4225C236.805 58.2595 236.639 58.957 236.333 59.515C236.036 60.064 235.613 60.4735 235.064 60.7435C234.515 61.0045 233.853 61.135 233.079 61.135ZM233.079 59.9875C233.772 59.9875 234.335 59.7805 234.767 59.3665C235.208 58.9525 235.446 58.282 235.482 57.355C235.5 56.95 235.509 56.59 235.509 56.275C235.509 55.951 235.5 55.591 235.482 55.195C235.464 54.574 235.347 54.07 235.131 53.683C234.924 53.296 234.645 53.0125 234.294 52.8325C233.943 52.6525 233.538 52.5625 233.079 52.5625C232.638 52.5625 232.242 52.6525 231.891 52.8325C231.54 53.0125 231.257 53.296 231.041 53.683C230.834 54.07 230.717 54.574 230.69 55.195C230.681 55.591 230.676 55.951 230.676 56.275C230.676 56.59 230.681 56.95 230.69 57.355C230.726 58.282 230.964 58.9525 231.405 59.3665C231.846 59.7805 232.404 59.9875 233.079 59.9875ZM239.327 61C239.237 61 239.16 60.973 239.097 60.919C239.043 60.856 239.016 60.7795 239.016 60.6895V55.06H237.869C237.779 55.06 237.702 55.033 237.639 54.979C237.585 54.916 237.558 54.8395 237.558 54.7495V54.2905C237.558 54.2005 237.585 54.1285 237.639 54.0745C237.702 54.0115 237.779 53.98 237.869 53.98H239.016V53.305C239.016 52.846 239.093 52.4455 239.246 52.1035C239.399 51.7525 239.642 51.4825 239.975 51.2935C240.317 51.1045 240.771 51.01 241.338 51.01H242.148C242.238 51.01 242.31 51.0415 242.364 51.1045C242.418 51.1585 242.445 51.2305 242.445 51.3205V51.7795C242.445 51.8695 242.418 51.946 242.364 52.009C242.31 52.063 242.238 52.09 242.148 52.09H241.365C240.942 52.09 240.654 52.2025 240.501 52.4275C240.348 52.6435 240.272 52.9585 240.272 53.3725V53.98H242.013C242.103 53.98 242.175 54.0115 242.229 54.0745C242.283 54.1285 242.31 54.2005 242.31 54.2905V54.7495C242.31 54.8395 242.283 54.916 242.229 54.979C242.175 55.033 242.103 55.06 242.013 55.06H240.272V60.6895C240.272 60.7795 240.24 60.856 240.177 60.919C240.123 60.973 240.051 61 239.961 61H239.327ZM246.325 61C246.226 61 246.15 60.973 246.096 60.919C246.042 60.856 246.015 60.7795 246.015 60.6895V51.8605C246.015 51.7705 246.042 51.6985 246.096 51.6445C246.15 51.5815 246.226 51.55 246.325 51.55H247.041C247.131 51.55 247.203 51.5815 247.257 51.6445C247.32 51.6985 247.351 51.7705 247.351 51.8605V60.6895C247.351 60.7795 247.32 60.856 247.257 60.919C247.203 60.973 247.131 61 247.041 61H246.325ZM249.504 61C249.414 61 249.337 60.973 249.274 60.919C249.22 60.856 249.193 60.7795 249.193 60.6895V54.2905C249.193 54.2005 249.22 54.1285 249.274 54.0745C249.337 54.0115 249.414 53.98 249.504 53.98H250.138C250.228 53.98 250.3 54.0115 250.354 54.0745C250.417 54.1285 250.449 54.2005 250.449 54.2905V54.8845C250.683 54.5785 250.975 54.331 251.326 54.142C251.686 53.944 252.145 53.845 252.703 53.845C253.288 53.845 253.783 53.9755 254.188 54.2365C254.602 54.4885 254.913 54.844 255.12 55.303C255.327 55.753 255.43 56.2795 255.43 56.8825V60.6895C255.43 60.7795 255.403 60.856 255.349 60.919C255.295 60.973 255.223 61 255.133 61H254.458C254.368 61 254.292 60.973 254.229 60.919C254.175 60.856 254.148 60.7795 254.148 60.6895V56.95C254.148 56.32 253.995 55.8295 253.689 55.4785C253.383 55.1185 252.933 54.9385 252.339 54.9385C251.781 54.9385 251.331 55.1185 250.989 55.4785C250.656 55.8295 250.489 56.32 250.489 56.95V60.6895C250.489 60.7795 250.458 60.856 250.395 60.919C250.341 60.973 250.269 61 250.179 61H249.504ZM257.353 61C257.263 61 257.187 60.973 257.124 60.919C257.07 60.856 257.043 60.7795 257.043 60.6895V54.2905C257.043 54.2005 257.07 54.1285 257.124 54.0745C257.187 54.0115 257.263 53.98 257.353 53.98H257.988C258.078 53.98 258.15 54.0115 258.204 54.0745C258.267 54.1285 258.298 54.2005 258.298 54.2905V54.8845C258.532 54.5785 258.825 54.331 259.176 54.142C259.536 53.944 259.995 53.845 260.553 53.845C261.138 53.845 261.633 53.9755 262.038 54.2365C262.452 54.4885 262.762 54.844 262.969 55.303C263.176 55.753 263.28 56.2795 263.28 56.8825V60.6895C263.28 60.7795 263.253 60.856 263.199 60.919C263.145 60.973 263.073 61 262.983 61H262.308C262.218 61 262.141 60.973 262.078 60.919C262.024 60.856 261.997 60.7795 261.997 60.6895V56.95C261.997 56.32 261.844 55.8295 261.538 55.4785C261.232 55.1185 260.782 54.9385 260.188 54.9385C259.63 54.9385 259.18 55.1185 258.838 55.4785C258.505 55.8295 258.339 56.32 258.339 56.95V60.6895C258.339 60.7795 258.307 60.856 258.244 60.919C258.19 60.973 258.118 61 258.028 61H257.353ZM267.768 61.135C267.084 61.135 266.512 61.0045 266.053 60.7435C265.594 60.4825 265.243 60.1225 265 59.6635C264.757 59.1955 264.622 58.6645 264.595 58.0705C264.586 57.9175 264.582 57.724 264.582 57.49C264.582 57.247 264.586 57.0535 264.595 56.9095C264.622 56.3065 264.757 55.7755 265 55.3165C265.252 54.8575 265.608 54.4975 266.067 54.2365C266.526 53.9755 267.093 53.845 267.768 53.845C268.443 53.845 269.01 53.9755 269.469 54.2365C269.928 54.4975 270.279 54.8575 270.522 55.3165C270.774 55.7755 270.913 56.3065 270.94 56.9095C270.949 57.0535 270.954 57.247 270.954 57.49C270.954 57.724 270.949 57.9175 270.94 58.0705C270.913 58.6645 270.778 59.1955 270.535 59.6635C270.292 60.1225 269.941 60.4825 269.482 60.7435C269.023 61.0045 268.452 61.135 267.768 61.135ZM267.768 60.0955C268.326 60.0955 268.771 59.92 269.104 59.569C269.437 59.209 269.617 58.687 269.644 58.003C269.653 57.868 269.658 57.697 269.658 57.49C269.658 57.283 269.653 57.112 269.644 56.977C269.617 56.293 269.437 55.7755 269.104 55.4245C268.771 55.0645 268.326 54.8845 267.768 54.8845C267.21 54.8845 266.76 55.0645 266.418 55.4245C266.085 55.7755 265.909 56.293 265.891 56.977C265.882 57.112 265.878 57.283 265.878 57.49C265.878 57.697 265.882 57.868 265.891 58.003C265.909 58.687 266.085 59.209 266.418 59.569C266.76 59.92 267.21 60.0955 267.768 60.0955ZM274.5 61C274.365 61 274.257 60.9685 274.176 60.9055C274.104 60.8425 274.045 60.7615 274 60.6625L271.503 54.3985C271.485 54.3535 271.476 54.3085 271.476 54.2635C271.476 54.1825 271.503 54.115 271.557 54.061C271.611 54.007 271.678 53.98 271.759 53.98H272.407C272.506 53.98 272.583 54.007 272.637 54.061C272.691 54.115 272.722 54.1645 272.731 54.2095L274.797 59.5285L276.849 54.2095C276.867 54.1645 276.898 54.115 276.943 54.061C276.997 54.007 277.074 53.98 277.173 53.98H277.834C277.906 53.98 277.969 54.007 278.023 54.061C278.086 54.115 278.118 54.1825 278.118 54.2635C278.118 54.3085 278.109 54.3535 278.091 54.3985L275.58 60.6625C275.544 60.7615 275.485 60.8425 275.404 60.9055C275.332 60.9685 275.224 61 275.08 61H274.5ZM280.888 61.135C280.438 61.135 280.028 61.045 279.659 60.865C279.29 60.685 278.993 60.442 278.768 60.136C278.543 59.83 278.431 59.4835 278.431 59.0965C278.431 58.4755 278.683 57.9805 279.187 57.6115C279.691 57.2425 280.348 56.9995 281.158 56.8825L283.169 56.599V56.2075C283.169 55.7755 283.043 55.438 282.791 55.195C282.548 54.952 282.148 54.8305 281.59 54.8305C281.185 54.8305 280.856 54.9115 280.604 55.0735C280.361 55.2355 280.19 55.4425 280.091 55.6945C280.037 55.8295 279.943 55.897 279.808 55.897H279.2C279.101 55.897 279.025 55.87 278.971 55.816C278.926 55.753 278.903 55.681 278.903 55.6C278.903 55.465 278.953 55.2985 279.052 55.1005C279.16 54.9025 279.322 54.709 279.538 54.52C279.754 54.331 280.028 54.1735 280.361 54.0475C280.703 53.9125 281.117 53.845 281.603 53.845C282.143 53.845 282.598 53.917 282.967 54.061C283.336 54.196 283.624 54.3805 283.831 54.6145C284.047 54.8485 284.2 55.114 284.29 55.411C284.389 55.708 284.438 56.0095 284.438 56.3155V60.6895C284.438 60.7795 284.407 60.856 284.344 60.919C284.29 60.973 284.218 61 284.128 61H283.507C283.408 61 283.331 60.973 283.277 60.919C283.223 60.856 283.196 60.7795 283.196 60.6895V60.109C283.079 60.271 282.922 60.433 282.724 60.595C282.526 60.748 282.278 60.8785 281.981 60.9865C281.684 61.0855 281.32 61.135 280.888 61.135ZM281.171 60.1225C281.54 60.1225 281.878 60.046 282.184 59.893C282.49 59.731 282.728 59.4835 282.899 59.1505C283.079 58.8175 283.169 58.399 283.169 57.895V57.517L281.603 57.7465C280.964 57.8365 280.483 57.9895 280.159 58.2055C279.835 58.4125 279.673 58.678 279.673 59.002C279.673 59.254 279.745 59.4655 279.889 59.6365C280.042 59.7985 280.231 59.92 280.456 60.001C280.69 60.082 280.928 60.1225 281.171 60.1225ZM288.716 61C288.212 61 287.802 60.9055 287.487 60.7165C287.172 60.5185 286.943 60.244 286.799 59.893C286.655 59.533 286.583 59.11 286.583 58.624V55.06H285.53C285.44 55.06 285.363 55.033 285.3 54.979C285.246 54.916 285.219 54.8395 285.219 54.7495V54.2905C285.219 54.2005 285.246 54.1285 285.3 54.0745C285.363 54.0115 285.44 53.98 285.53 53.98H286.583V51.7255C286.583 51.6355 286.61 51.5635 286.664 51.5095C286.727 51.4465 286.803 51.415 286.893 51.415H287.528C287.618 51.415 287.69 51.4465 287.744 51.5095C287.807 51.5635 287.838 51.6355 287.838 51.7255V53.98H289.512C289.602 53.98 289.674 54.0115 289.728 54.0745C289.791 54.1285 289.823 54.2005 289.823 54.2905V54.7495C289.823 54.8395 289.791 54.916 289.728 54.979C289.674 55.033 289.602 55.06 289.512 55.06H287.838V58.5295C287.838 58.9525 287.91 59.2855 288.054 59.5285C288.198 59.7715 288.455 59.893 288.824 59.893H289.647C289.737 59.893 289.809 59.9245 289.863 59.9875C289.926 60.0415 289.958 60.1135 289.958 60.2035V60.6895C289.958 60.7795 289.926 60.856 289.863 60.919C289.809 60.973 289.737 61 289.647 61H288.716ZM291.222 61C291.132 61 291.055 60.973 290.992 60.919C290.938 60.856 290.911 60.7795 290.911 60.6895V54.2905C290.911 54.2005 290.938 54.1285 290.992 54.0745C291.055 54.0115 291.132 53.98 291.222 53.98H291.87C291.96 53.98 292.032 54.0115 292.086 54.0745C292.14 54.1285 292.167 54.2005 292.167 54.2905V60.6895C292.167 60.7795 292.14 60.856 292.086 60.919C292.032 60.973 291.96 61 291.87 61H291.222ZM291.114 52.6705C291.024 52.6705 290.947 52.6435 290.884 52.5895C290.83 52.5265 290.803 52.45 290.803 52.36V51.631C290.803 51.541 290.83 51.469 290.884 51.415C290.947 51.352 291.024 51.3205 291.114 51.3205H291.964C292.054 51.3205 292.126 51.352 292.18 51.415C292.243 51.469 292.275 51.541 292.275 51.631V52.36C292.275 52.45 292.243 52.5265 292.18 52.5895C292.126 52.6435 292.054 52.6705 291.964 52.6705H291.114ZM296.745 61.135C296.061 61.135 295.49 61.0045 295.031 60.7435C294.572 60.4825 294.221 60.1225 293.978 59.6635C293.735 59.1955 293.6 58.6645 293.573 58.0705C293.564 57.9175 293.559 57.724 293.559 57.49C293.559 57.247 293.564 57.0535 293.573 56.9095C293.6 56.3065 293.735 55.7755 293.978 55.3165C294.23 54.8575 294.585 54.4975 295.044 54.2365C295.503 53.9755 296.07 53.845 296.745 53.845C297.42 53.845 297.987 53.9755 298.446 54.2365C298.905 54.4975 299.256 54.8575 299.499 55.3165C299.751 55.7755 299.891 56.3065 299.918 56.9095C299.927 57.0535 299.931 57.247 299.931 57.49C299.931 57.724 299.927 57.9175 299.918 58.0705C299.891 58.6645 299.756 59.1955 299.513 59.6635C299.27 60.1225 298.919 60.4825 298.46 60.7435C298.001 61.0045 297.429 61.135 296.745 61.135ZM296.745 60.0955C297.303 60.0955 297.749 59.92 298.082 59.569C298.415 59.209 298.595 58.687 298.622 58.003C298.631 57.868 298.635 57.697 298.635 57.49C298.635 57.283 298.631 57.112 298.622 56.977C298.595 56.293 298.415 55.7755 298.082 55.4245C297.749 55.0645 297.303 54.8845 296.745 54.8845C296.187 54.8845 295.737 55.0645 295.395 55.4245C295.062 55.7755 294.887 56.293 294.869 56.977C294.86 57.112 294.855 57.283 294.855 57.49C294.855 57.697 294.86 57.868 294.869 58.003C294.887 58.687 295.062 59.209 295.395 59.569C295.737 59.92 296.187 60.0955 296.745 60.0955ZM301.595 61C301.505 61 301.428 60.973 301.365 60.919C301.311 60.856 301.284 60.7795 301.284 60.6895V54.2905C301.284 54.2005 301.311 54.1285 301.365 54.0745C301.428 54.0115 301.505 53.98 301.595 53.98H302.229C302.319 53.98 302.391 54.0115 302.445 54.0745C302.508 54.1285 302.54 54.2005 302.54 54.2905V54.8845C302.774 54.5785 303.066 54.331 303.417 54.142C303.777 53.944 304.236 53.845 304.794 53.845C305.379 53.845 305.874 53.9755 306.279 54.2365C306.693 54.4885 307.004 54.844 307.211 55.303C307.418 55.753 307.521 56.2795 307.521 56.8825V60.6895C307.521 60.7795 307.494 60.856 307.44 60.919C307.386 60.973 307.314 61 307.224 61H306.549C306.459 61 306.383 60.973 306.32 60.919C306.266 60.856 306.239 60.7795 306.239 60.6895V56.95C306.239 56.32 306.086 55.8295 305.78 55.4785C305.474 55.1185 305.024 54.9385 304.43 54.9385C303.872 54.9385 303.422 55.1185 303.08 55.4785C302.747 55.8295 302.58 56.32 302.58 56.95V60.6895C302.58 60.7795 302.549 60.856 302.486 60.919C302.432 60.973 302.36 61 302.27 61H301.595Z" fill="white"/>
<defs>
<linearGradient id="paint0_linear_124_4540" x1="33.4331" y1="2" x2="33.4331" y2="75" gradientUnits="userSpaceOnUse">
<stop stop-color="white"/>
<stop offset="1" stop-color="#FED530"/>
</linearGradient>
</defs>
</svg>
